<svg viewBox="0 0 355 124" fill="none"
     xmlns="http://www.w3.org/2000/svg" class="stuff-logo">
  <path
    d="M302.889 10.8038V2.40237H289.997C273.556 2.40237 259.373 10.6178 259.373 30.9133V38.5106H246.475V46.912H268.692V31.6094C268.692 15.1786 279.657 10.8278 290.135 10.8278L302.889 10.8038Z"
    fill="#6443ab"/>
  <path
    d="M229.716 86.6749C229.716 104.558 219.075 114.88 201.019 114.88C182.807 114.88 172.166 104.57 172.166 86.6749V46.4019L175.553 43.0174V38.5106H162.817V86.3508C162.817 111.321 178.291 123.245 201.019 123.245C223.585 123.245 239.059 111.321 239.059 86.3508V38.5106H229.716V86.6749Z"
    fill="#6443ab"/>
  <path
    d="M326.584 121.631H335.934V62.1907H354.152V53.8132H326.584V121.631Z" fill="#6443ab"/>
  <path
    d="M250.99 50.4286H246.475V62.1907H259.373V121.631H268.716V53.8132H254.377L250.99 50.4286Z" fill="#6443ab"/>
  <path
    d="M276.132 121.631H285.482V62.1907H309.825V121.631H319.174V53.8132H276.132V121.631Z" fill="#6443ab"/>
  <path
    d="M201.019 107.937C214.56 107.937 222.3 99.8832 222.3 86.8369V46.4019L225.68 43.0174V38.5106H212.95V87.161C212.95 95.3764 209.083 99.5651 201.019 99.5651C192.955 99.5651 188.931 95.3644 188.931 87.161V38.5106H179.582V86.8189C179.582 99.7031 187.322 107.919 201.019 107.919"
    fill="#6443ab"/>
  <path
    d="M340.449 2.42636C324.008 2.42636 309.825 10.6418 309.825 30.9373V38.5106H285.482V32.5516C285.482 27.7147 286.935 26.1064 292.087 26.1064H302.895V17.705H291.444C280.972 17.705 276.132 22.3798 276.132 32.3655V46.864H319.168V31.6094C319.168 15.1786 330.133 10.8278 340.611 10.8278H354.152V2.42636H340.449Z"
    fill="#6443ab"/>
  <path
    d="M326.584 32.3895V46.888H346.25L349.636 50.2666H354.152V38.5106H335.934V32.5516C335.934 27.7147 337.387 26.1065 342.539 26.1065H354.146V17.705H341.896C331.424 17.705 326.584 22.3798 326.584 32.3655"
    fill="#6443ab"/>
  <path
    d="M36.6151 72.3384L52.894 75.723C63.048 77.8173 66.9151 81.3579 66.9151 87.641C66.9151 96.1805 60.1477 100.207 48.0602 100.207C35.162 100.207 28.3946 95.6944 27.2657 86.3508H17.9163C19.8499 102.464 31.7813 108.261 47.898 108.261C64.5011 108.261 76.2644 102.14 76.2644 87.161C76.2644 74.7568 68.0439 69.7579 55.47 67.1835L38.3865 63.6369C20.4924 59.9343 12.7583 51.0767 12.7583 36.4102C12.7583 19.4933 24.0412 8.86547 46.7691 8.86547C64.6633 8.86547 76.9129 16.2707 81.1043 30.1271L77.8797 34.0098C78.2234 35.4996 78.492 37.0058 78.6843 38.5226H91.8948C90.1234 16.1327 74.6492 0.830087 46.7631 0.830087C21.6213 0.818085 3.4209 12.4061 3.4209 36.4102C3.4209 57.5098 16.157 68.1437 36.6271 72.3324"
    fill="#6443ab"/>
  <path d="M116.562 15.4726H107.213V38.5106H94.3147V46.888H116.562V15.4726Z"
        fill="#6443ab"/>
  <path
    d="M60.628 51.8809L43.0521 48.3343C33.3785 46.4019 29.8417 42.3752 29.8417 35.7741C29.8417 28.3628 36.1287 23.85 46.7691 23.85C57.4095 23.85 64.3389 28.8429 65.4678 38.5106H74.8172C73.3641 22.5598 61.1144 15.7967 46.7691 15.7967C32.0995 15.7967 20.4923 21.9177 20.4923 36.2542C20.4923 47.8542 27.9082 54.1373 40.9685 56.8737L58.064 60.4143C75.1475 63.955 84.0165 71.3662 84.0165 86.3448C84.0165 104.066 70.6379 115.18 47.4236 115.18C29.8537 115.18 16.4751 108.255 11.8034 94.7222L15.028 90.8576C14.6807 89.3708 14.4141 87.8664 14.2293 86.3508H0.832764C1.96166 110.223 20.0119 123.245 47.4116 123.245C74.9793 123.245 93.3539 110.517 93.3539 86.1948C93.3539 66.3914 80.9421 55.9076 60.628 51.8809"
    fill="#6443ab"/>
  <path
    d="M133.322 15.4726H123.978V46.888H147.511L150.891 50.2666H155.407V38.5106H133.322V15.4726Z"
    fill="#6443ab"/>
  <path
    d="M116.562 93.6001V53.8132H102.217L98.8303 50.4286H94.3147V62.2147H107.213V94.9143C107.213 115.858 119.787 121.655 135.579 121.655H155.395V113.253H137.357C125.75 113.253 116.562 109.713 116.562 93.6001"
    fill="#6443ab"/>
  <path
    d="M123.978 92.8199C123.978 103.622 128.782 106.352 138.486 106.352H155.407V97.9508H139.128C134.45 97.9508 133.328 96.0185 133.328 91.6677V62.2147H155.407V53.8132H123.978V92.8199Z"
    fill="#6443ab"/>
</svg>
