<svg version="1.1" xmlns="http://www.w3.org/2000/svg" width="107.972mm" height="25.4mm" xmlns:xlink="http://www.w3.org/1999/xlink" viewBox="0 0 346.4 123.1" style="enable-background:new 0 0 346.4 123.1;" xml:space="preserve">
    <path class="st0" d="M204.3,89.4c-5.2,0.2-9.5-3.9-9.7-9c0-0.2,0-0.5,0-0.7c-0.2-5.2,3.8-9.5,9-9.8c0.3,0,0.5,0,0.8,0
                c3.1,0,6,1.2,8.1,3.4l3.6-5.6c-3.2-2.9-7.4-4.4-11.6-4.4c-9-0.2-16.4,6.9-16.7,15.9s6.9,16.4,15.9,16.7c0.3,0,0.5,0,0.8,0
                c4.5,0.1,8.9-1.5,12.2-4.5l-3.7-5.6C210.7,88.1,207.6,89.5,204.3,89.4z"></path>
    
    
    
    <rect x="240.2" y="63.4" class="st0" width="6.5" height="32.5"></rect>
    
    
    
    <polygon class="st0" points="280.4,69.9 269.5,69.9 269.5,63.4 297.7,63.4 297.7,69.9 286.8,69.9 286.8,95.8 280.4,95.8 "></polygon>
    
    
    
    <polygon class="st0" points="338.6,63.4 330.4,76.4 322.1,63.4 314.2,63.4 327.1,83.3 327.1,95.8 333.6,95.8 333.6,83.3 346.4,63.4
                "></polygon>
    
    
    
    <path class="st0" d="M96.2,36.1c-4.9,0-8.9,4.1-8.9,9s4.1,8.9,9,8.9c4.9,0,8.9-4,8.9-8.9C105.2,40.1,101.2,36.1,96.2,36.1z"></path>
    
    
    
    <path class="st0" d="M32.5,36.1c-4.9,0-8.9,4-8.9,8.9s4,8.9,8.9,8.9s8.9-4,8.9-8.9C41.4,40.1,37.4,36.1,32.5,36.1z"></path>
    
    
    
    <polygon class="st0" points="77.9,0 61.2,29.1 61.2,95.8 77.9,95.8 "></polygon>
    
    
    
    <polygon class="st0" points="86.5,77.8 95.8,61.8 117.8,95.8 98.1,95.8 "></polygon>
    
    
    
    <path class="st0" d="M137.9,105.4c-4.9,0-8.8,4-8.8,8.9c0,4.9,4,8.8,8.9,8.8c4.9,0,8.8-4,8.8-8.9
                C146.8,109.4,142.8,105.4,137.9,105.4z"></path>
    
    
    
    <polygon class="st0" points="116.9,36.6 154.6,95.1 163.9,79.1 136.5,36.6 "></polygon>
    
    
    
    <path class="st0" d="M170.3,36.1c-4.9,0-8.9,4.1-8.9,9s4.1,8.9,9,8.9c4.9,0,8.9-4,8.9-8.9C179.3,40.1,175.2,36.1,170.3,36.1z"></path>
    
    
    
    <path class="st0" d="M18,86.9c0,5-4,9-8.9,9.1c-5,0-9-4-9.1-8.9s4-9,8.9-9.1c0,0,0,0,0.1,0C13.9,78,18,82,18,86.9"></path>
    
    
    
    <path class="st0" d="M42.8,82.1c0-3.8-2.1-9.4-9.4-16C21.6,55.4,16.1,50.7,13.8,45.9c-2.6-6.7,4.5-10.1,4.5-10.1
                C4.1,37,2.2,47.2,2.1,50.4c-0.2,4.4,1.8,9.9,9.1,16.6c8.2,7.5,16.1,10.2,17.3,19.2c0.8,6.5-7.3,9.6-7.3,9.6
                C43.9,95.8,42.8,82.1,42.8,82.1z"></path>
    
            </svg>