<svg xmlns="http://www.w3.org/2000/svg" xmlns:xlink="http://www.w3.org/1999/xlink" version="1.1" id="Layer_1" x="0px" y="0px" width="100%" viewBox="0 0 1500 571" enable-background="new 0 0 1500 571" xml:space="preserve">
    <path fill="#000000" opacity="0" stroke="none" d=" M916.000000,572.000000   C610.703430,572.000000 305.906799,572.000000 1.055108,572.000000   C1.055108,381.726349 1.055108,191.452698 1.055108,1.089517   C500.880035,1.089517 1000.760071,1.089517 1500.820068,1.089517   C1500.820068,191.333206 1500.820068,381.666595 1500.820068,572.000000   C1306.119141,572.000000 1111.309570,572.000000 916.000000,572.000000  M440.426147,342.065369   C440.220184,339.427521 440.066803,336.784363 439.799469,334.152740   C438.413879,320.513977 437.015015,306.876495 435.589447,293.241852   C434.525116,283.062103 433.411652,272.887482 432.322968,262.710236   C431.215942,252.361664 430.006622,242.022629 429.034576,231.661362   C427.845795,218.989792 427.002716,206.285049 425.747589,193.620667   C423.924042,175.221756 421.803558,156.852341 419.967072,138.454636   C419.651245,135.290985 418.842865,133.878738 415.266327,133.925507   C399.936005,134.125931 384.601532,134.010468 369.268585,134.010361   C351.279358,134.010239 333.290131,134.010330 315.198639,134.010330   C314.732758,135.613007 314.327240,137.007996 313.900085,138.477371   C311.743103,138.623764 309.637329,138.766678 307.318817,138.924042   C300.016144,175.447739 292.758881,211.744370 285.501617,248.041016   C285.083435,247.996323 284.665253,247.951630 284.247040,247.906921   C277.574921,209.965179 270.902802,172.023422 264.246704,134.172729   C228.685165,134.172729 193.882965,134.172729 159.136398,134.172729   C158.833969,135.742020 158.563995,137.142868 158.225143,138.901138   C152.400604,137.362183 150.696289,139.652115 150.732956,145.209641   C150.770752,150.936874 149.502838,156.676178 148.761719,162.404434   C146.858124,177.117538 144.834473,191.815811 143.037628,206.541824   C141.138367,222.107285 139.547180,237.710434 137.635345,253.274261   C135.584290,269.971436 133.272141,286.636383 131.157379,303.325958   C129.415726,317.071167 127.782562,330.830200 126.126411,344.586090   C124.746696,356.045929 123.443550,367.515137 122.031982,378.970978   C120.781944,389.115967 119.373276,399.241486 118.140022,409.388397   C117.195503,417.159729 116.415314,424.951050 115.549225,432.850281   C145.936401,432.850281 175.707077,432.850281 205.546829,432.850281   C205.847733,431.303650 206.112030,429.945160 206.299240,428.982849   C209.172150,427.524902 213.621338,430.915192 213.897430,424.701324   C214.646576,407.839691 216.034485,391.007599 216.940659,374.151489   C217.972427,354.959412 218.740311,335.753235 219.675339,316.555756   C219.766876,314.676758 220.225677,312.815643 220.513992,310.946228   C220.951431,310.991119 221.388870,311.036041 221.826294,311.080933   C228.777817,351.704254 235.729340,392.327576 242.699905,433.062134   C264.331421,433.062134 285.492249,432.948242 306.649658,433.166718   C310.478333,433.206268 312.968079,432.447388 313.605927,428.259338   C315.900635,428.259338 317.847656,428.259338 319.875916,428.259338   C328.596130,384.852905 337.256195,341.745972 345.916229,298.639008   C346.086243,298.697479 346.256226,298.755920 346.426208,298.814392   C348.537445,343.542725 350.648651,388.271027 352.756226,432.922852   C382.855927,432.922852 411.831909,432.922852 441.156677,432.922852   C441.291656,431.472229 441.419128,430.102264 441.572723,428.451691   C444.129822,428.451691 446.422974,428.451691 449.248932,428.451691   C446.405579,399.696167 443.597961,371.301788 440.426147,342.065369  M468.095245,216.692993   C460.076538,236.846024 456.702240,257.958710 456.013702,279.459991   C455.329437,300.829712 457.168640,322.018311 462.695129,342.814392   C468.745819,365.583069 479.248505,385.891937 495.865051,402.661896   C516.046265,423.029541 540.269531,435.343719 569.143738,437.886993   C589.704285,439.697998 609.635071,437.223724 628.765015,429.365540   C631.948853,428.057709 634.549866,425.274933 637.759460,424.102753   C640.585571,423.070679 641.690308,421.649261 641.814392,418.864594   C642.434265,404.954163 643.085449,391.044922 643.785034,377.138275   C644.025940,372.350281 644.466614,367.572662 644.766846,362.787231   C645.301758,354.258881 645.799316,345.728180 646.368713,336.265259   C644.508911,337.247467 643.481079,337.621490 642.650757,338.254547   C632.912903,345.679352 622.994751,352.837860 610.446838,354.599945   C595.926086,356.639130 582.478271,354.277679 571.246521,343.978760   C560.348022,333.985474 555.485596,320.832733 552.940002,306.877075   C550.543457,293.738800 549.385498,280.533600 551.071167,266.961334   C552.905701,252.190521 555.898865,238.146011 563.678040,225.272339   C569.134155,216.243134 576.620483,210.641754 587.170227,209.159424   C603.124390,206.917725 616.787598,211.789062 628.771790,222.172058   C630.400696,223.583328 632.176514,224.825104 634.756836,226.819901   C634.756836,222.396454 634.756836,219.205856 634.756836,215.411102   C637.687805,217.694107 640.004822,219.498886 642.889893,221.746094   C642.889893,192.552444 642.889893,164.422043 642.889893,136.106354   C627.551758,130.412827 611.878052,128.111877 595.504028,128.704819   C581.217529,129.222198 567.348755,130.912521 553.825256,135.710495   C527.824463,144.935257 505.496735,159.654160 488.709198,181.510300   C480.636993,192.019745 475.002319,204.401459 468.095245,216.692993  M765.500000,433.061584   C776.461426,433.061584 787.422852,433.061584 798.455933,433.061584   C798.756653,431.320465 798.991455,429.960999 799.217346,428.653473   C801.634338,428.538788 803.724792,428.439606 806.140137,428.325012   C806.140137,355.711670 806.140137,283.617981 806.140137,211.037506   C819.556396,211.037506 832.625244,211.037506 845.607117,211.037506   C845.906677,209.022964 846.133362,207.498169 846.400208,205.703857   C849.064270,205.703857 851.323120,205.703857 853.491089,205.703857   C853.491089,181.633911 853.491089,157.904922 853.491089,134.146362   C794.175171,134.146362 735.206848,134.146362 676.177551,134.146362   C675.908203,135.653061 675.660339,137.039749 675.404236,138.472366   C672.844238,138.626465 670.592834,138.761993 668.350098,138.896988   C668.350098,163.174835 668.350098,187.046188 668.350098,211.368774   C683.676208,211.368774 698.588379,211.368774 713.820190,211.368774   C713.820190,285.416046 713.820190,359.008362 713.820190,433.061584   C730.933105,433.061584 747.716553,433.061584 765.500000,433.061584  M949.700195,211.923752   C947.931702,211.923752 946.163208,211.923752 944.496643,211.923752   C942.426880,222.312607 940.497131,231.998627 938.342896,242.811264   C936.481934,231.860031 934.812378,222.035034 933.126404,212.113617   C923.769043,212.113617 914.830505,212.113617 905.707642,212.113617   C902.689819,236.890213 899.692261,261.499664 896.690613,286.143433   C905.138123,286.143433 912.692444,286.143433 920.317749,286.143433   C921.023438,276.215668 921.703918,266.642487 922.384460,257.069305   C922.741638,257.086365 923.098816,257.103394 923.455994,257.120453   C925.166382,266.913422 926.876770,276.706390 928.588501,286.506897   C933.560791,286.506897 937.900757,286.285217 942.206482,286.574188   C945.922791,286.823578 947.445190,285.412842 948.067871,281.776398   C949.726379,272.092438 951.734009,262.468262 953.602844,252.820312   C953.779358,252.815018 953.955933,252.809738 954.132446,252.804443   C954.703918,263.924316 955.275391,275.044189 955.849609,286.216980   C963.720764,286.216980 971.145447,286.216980 979.160583,286.216980   C976.653259,261.310577 974.181091,236.753036 971.681519,211.923630   C964.258850,211.923630 957.455566,211.923630 949.700195,211.923752  M990.604248,286.508087   C992.604248,286.508087 994.604187,286.508209 996.604187,286.508118   C1005.282837,286.507782 1005.278809,286.506866 1007.109680,278.120636   C1007.166382,277.861084 1007.498352,277.661591 1007.682251,277.456085   C1011.664429,277.456085 1015.621704,277.456085 1019.332642,277.456085   C1020.135010,280.644135 1020.875061,283.584839 1021.523254,286.160522   C1029.434814,286.160522 1036.666382,286.160522 1044.422119,286.160522   C1038.844482,261.158173 1033.367310,236.606796 1027.892212,212.064178   C1018.710449,212.064178 1010.073853,212.064178 1001.102051,212.064178   C994.871643,236.734375 988.654846,261.350739 982.301392,286.508057   C985.356628,286.508057 987.500061,286.508057 990.604248,286.508087  M1143.761230,251.499878   C1143.761230,263.076385 1143.761230,274.652863 1143.761230,286.254700   C1157.349365,286.254700 1170.261841,286.254700 1183.415771,286.254700   C1183.415771,279.762848 1183.415771,273.531189 1183.415771,266.908203   C1177.572144,266.908203 1171.977295,266.908203 1166.339355,266.908203   C1166.339355,263.824402 1166.339355,261.145996 1166.339355,258.129944   C1171.502930,258.129944 1176.281860,258.129944 1181.390869,258.129944   C1181.390869,251.737030 1181.390869,245.695129 1181.390869,239.256577   C1176.176880,239.256577 1171.256470,239.256577 1166.225830,239.256577   C1166.225830,236.298340 1166.225830,233.743210 1166.225830,230.812088   C1172.075439,230.812088 1177.659790,230.812088 1183.386475,230.812088   C1183.386475,224.358704 1183.386475,218.289276 1183.386475,211.922058   C1176.626953,211.922058 1170.151123,211.922058 1163.675293,211.922058   C1157.078979,211.922058 1150.482666,211.922058 1143.761230,211.922058   C1143.761230,225.210052 1143.761230,237.854950 1143.761230,251.499878  M1064.398438,287.895447   C1066.344360,287.624542 1068.334473,287.529755 1070.228516,287.052765   C1079.420410,284.737823 1085.721680,279.331818 1088.211060,269.930267   C1090.862915,259.916016 1088.851440,251.217041 1080.811279,244.361649   C1078.326416,242.242905 1075.167114,240.855347 1072.907349,238.553146   C1071.420166,237.038132 1070.990112,234.485504 1070.086670,232.397537   C1072.458618,231.952393 1075.083862,230.662827 1077.137451,231.278839   C1079.625854,232.025223 1081.636963,234.374283 1083.842285,236.046112   C1084.762573,236.743683 1085.651245,237.483032 1087.321655,238.815567   C1087.321655,232.731766 1087.321899,227.778488 1087.321655,222.825195   C1087.321289,213.710938 1086.311523,212.508194 1077.123657,211.151855   C1074.838501,210.814514 1072.502075,210.636703 1070.193726,210.672714   C1053.117798,210.939056 1043.143188,229.982452 1048.967407,243.926834   C1051.827148,250.773560 1057.671265,254.485306 1062.883301,259.030243   C1064.628296,260.551849 1066.646606,264.049622 1066.000488,265.551025   C1064.622437,268.752838 1061.033081,269.066101 1057.967651,267.225128   C1054.553101,265.174438 1051.351929,262.768402 1047.425903,260.085052   C1047.425903,264.052948 1047.426025,267.659149 1047.426025,271.265350   C1047.426025,285.223846 1047.424438,285.231415 1061.016113,287.854218   C1061.819702,288.009216 1062.676514,287.888702 1064.398438,287.895447  M1099.818604,219.424576   C1092.343872,228.028824 1091.910767,245.413589 1103.119873,253.516708   C1105.522339,255.253464 1108.210449,256.804932 1110.063110,259.028259   C1111.630615,260.909454 1113.575562,264.239044 1112.877319,265.862854   C1111.594360,268.846100 1107.990356,268.947021 1105.137939,267.282593   C1101.673218,265.260956 1098.431274,262.857300 1094.637817,260.313629   C1094.637817,264.298492 1094.637817,268.245209 1094.637817,272.191925   C1094.637817,285.034698 1094.587036,285.333466 1107.195679,287.477142   C1121.046631,289.832062 1134.305786,280.815491 1136.004517,265.811890   C1137.209473,255.168350 1132.987793,247.736389 1124.555298,241.908798   C1121.374756,239.710770 1118.565063,236.975998 1115.595459,234.493561   C1120.543213,228.449951 1120.543213,228.449951 1133.912476,238.358047   C1133.912476,230.660248 1133.974487,223.446564 1133.826050,216.237228   C1133.809326,215.425476 1132.763672,214.343323 1131.923340,213.885086   C1123.197021,209.126740 1108.479370,208.647781 1099.818604,219.424576  M1230.595947,211.923264   C1224.848755,210.855804 1221.214233,212.497375 1220.187500,218.910919   C1219.581909,222.694305 1217.838379,226.295532 1216.160034,231.313461   C1214.403320,225.781494 1213.256836,221.356140 1211.550781,217.158218   C1210.750122,215.188263 1208.982056,212.285507 1207.461792,212.162552   C1200.718872,211.617157 1193.906860,211.926270 1186.570557,211.926270   C1187.056519,213.688950 1187.240845,214.986465 1187.757690,216.134186   C1192.504395,226.671036 1197.184204,237.241150 1202.151855,247.673798   C1204.424072,252.445694 1205.355225,257.257690 1205.179565,262.523499   C1204.916260,270.413483 1205.111084,278.318787 1205.111084,286.300781   C1213.085327,286.300781 1220.352295,286.300781 1228.063965,286.300781   C1228.063965,279.652191 1228.505859,273.169342 1227.957153,266.771454   C1227.195312,257.888153 1229.761597,250.030563 1233.372559,242.146210   C1237.853882,232.361313 1241.786255,222.324951 1246.154663,211.923264   C1240.861328,211.923264 1236.214478,211.923264 1230.595947,211.923264  M1019.961426,338.224609   C1019.556763,341.598236 1019.152161,344.971863 1018.696594,348.769897   C1021.268311,348.769897 1023.233643,348.769440 1025.198975,348.770020   C1033.750000,348.772461 1033.742676,348.772461 1033.838867,340.449585   C1033.850586,339.433197 1033.990723,338.418304 1034.071289,337.402740   C1035.698120,339.899963 1035.915283,342.720123 1037.141479,344.996826   C1038.021484,346.630646 1040.216675,348.491180 1041.885010,348.549866   C1044.500732,348.641937 1048.460693,350.701843 1049.505859,345.748993   C1050.454712,341.251923 1051.564697,336.788910 1052.926270,330.920929   C1053.492676,337.654388 1053.941772,342.993103 1054.384644,348.257629   C1059.456177,348.257629 1064.125977,348.257629 1068.828857,348.257629   C1067.237915,332.874603 1065.699951,318.004150 1064.174561,303.255981   C1058.304321,303.255981 1052.725708,303.255981 1047.236938,303.255981   C1046.229614,308.157013 1045.296021,312.699341 1044.362427,317.241638   C1044.048096,317.235901 1043.733887,317.230133 1043.419556,317.224396   C1042.678101,312.495575 1041.936768,307.766754 1041.216797,303.174866   C1035.256958,303.174866 1029.650513,303.174866 1024.042725,303.174866   C1022.665100,314.736511 1021.319641,326.028168 1019.961426,338.224609  M983.222717,342.224243   C983.469604,343.174866 983.760742,344.116486 983.955994,345.077606   C985.016113,350.297302 989.182007,348.375458 992.361816,348.781677   C995.800354,349.220978 996.452515,346.911102 996.952942,344.337524   C997.787842,340.043091 998.670288,335.757904 999.532715,331.468842   C1000.243591,333.005035 1000.198425,334.465576 1000.250732,335.922668   C1000.734314,349.399689 1000.739136,349.400085 1014.389832,348.683594   C1014.527832,348.676361 1014.659485,348.547577 1015.680542,348.001160   C1014.156128,333.268585 1012.592285,318.155701 1011.037781,303.132843   C1004.929871,303.132843 999.643738,303.132843 994.222473,303.132843   C993.221680,307.999603 992.261230,312.670105 991.300720,317.340637   C991.042603,317.315613 990.784424,317.290588 990.526245,317.265594   C989.624084,312.532532 988.721924,307.799469 987.812744,303.029480   C982.076111,303.029480 976.780029,303.029480 970.950989,303.029480   C969.165344,318.175690 967.387085,333.259705 965.558960,348.766876   C969.646423,348.766876 972.952209,348.657074 976.247253,348.797760   C979.544128,348.938477 981.285706,347.914368 980.867065,344.242645   C980.607849,341.969910 980.818970,339.643555 980.818970,337.341248   C981.092285,337.280243 981.365601,337.219208 981.638916,337.158203   C982.165771,338.571533 982.692688,339.984894 983.222717,342.224243  M1166.617065,310.357727   C1166.617065,311.837311 1166.617065,313.316895 1166.617065,314.951355   C1168.877563,315.123199 1170.797241,315.269104 1173.066528,315.441620   C1173.066528,325.340027 1172.955933,334.971069 1173.188354,344.593811   C1173.222412,346.004181 1174.737061,348.415070 1175.826416,348.573120   C1179.357422,349.085297 1183.009033,348.764435 1187.079956,348.764435   C1187.079956,337.263672 1187.079956,326.362671 1187.079956,315.079041   C1189.640747,315.079041 1191.718140,315.079041 1193.870728,315.079041   C1194.014404,312.549805 1194.135742,310.412903 1194.298462,307.547638   C1200.602173,319.961945 1206.708740,331.519928 1204.553101,345.272858   C1204.502197,345.597229 1204.416626,346.054199 1204.582275,346.250824   C1205.322632,347.128662 1206.099243,348.588196 1206.951904,348.652283   C1210.535156,348.921692 1214.150391,348.766113 1219.072754,348.766113   C1214.416138,331.354065 1224.220581,317.930054 1229.419922,303.110657   C1224.168213,303.110657 1219.390259,303.110657 1215.004883,303.110657   C1213.564453,306.267120 1212.270996,309.101471 1210.796021,312.333710   C1209.493164,308.680206 1208.470825,305.813416 1207.540405,303.204102   C1193.710083,303.204102 1180.307007,303.204102 1166.616821,303.204102   C1166.616821,305.482483 1166.616821,307.465271 1166.617065,310.357727  M1144.990479,346.098511   C1144.990479,331.827850 1144.990479,317.557159 1144.990479,303.219421   C1140.170898,303.219421 1135.795044,303.219421 1130.958496,303.219421   C1130.958496,308.194153 1130.958496,312.862152 1130.958496,318.745850   C1128.656128,313.366974 1126.962280,309.171051 1125.033569,305.086060   C1124.596802,304.160919 1123.379150,303.059937 1122.460327,303.002197   C1118.711914,302.766388 1114.939819,302.903931 1110.953979,302.903931   C1110.953979,315.444672 1110.953979,327.407104 1110.953979,339.369537   C1110.953979,349.031494 1110.953979,349.031433 1120.572998,348.770020   C1120.739380,348.765503 1120.907715,348.752899 1121.072144,348.771484   C1123.871094,349.087555 1124.966675,347.884918 1124.843994,345.047424   C1124.674194,341.123749 1124.801392,337.187286 1124.801392,333.256287   C1127.094971,336.598907 1128.567871,340.139374 1129.940552,343.718262   C1132.031860,349.170685 1140.020874,350.950256 1144.990479,346.098511  M1315.318115,341.899719   C1320.069214,349.459229 1327.557739,349.941925 1335.034058,348.587036   C1341.080078,347.491333 1345.959351,343.426727 1346.277954,336.911896   C1346.827026,325.682159 1346.429932,314.406128 1346.429932,303.218262   C1341.448120,303.218262 1336.879150,303.218262 1332.345093,303.218262   C1331.240845,314.356262 1333.320068,325.388794 1329.943115,336.228363   C1328.429321,334.313080 1327.745972,332.295197 1327.719116,330.268646   C1327.599487,321.209320 1327.667114,312.147522 1327.667114,303.093109   C1322.440063,303.093109 1317.995728,303.093109 1313.083496,303.093109   C1313.083496,311.730988 1312.874512,320.178375 1313.171997,328.607880   C1313.320190,332.809845 1314.395752,336.979126 1315.318115,341.899719  M1091.214600,304.808990   C1091.210449,314.293152 1091.259033,323.778107 1091.121338,333.260315   C1091.107422,334.218933 1089.968018,335.161163 1089.350952,336.111023   C1088.678711,335.176361 1087.699585,334.326019 1087.413818,333.285187   C1087.073608,332.046722 1087.326782,330.644806 1087.326660,329.313690   C1087.325928,320.577972 1087.326172,311.842255 1087.326172,303.116638   C1082.227417,303.116638 1077.797241,303.116638 1073.565552,303.116638   C1073.264526,303.460846 1073.060547,303.585052 1073.060059,303.710083   C1073.023682,313.193604 1073.379028,322.697144 1072.876465,332.155182   C1072.369263,341.703400 1077.807129,348.348175 1088.599243,349.208160   C1096.462524,349.834717 1105.307007,344.609894 1105.633667,338.017639   C1106.206665,326.452759 1105.793701,314.839020 1105.793701,302.461182   C1100.578613,302.964630 1095.927734,303.413605 1091.214600,304.808990  M1306.060303,338.223999   C1305.257202,336.446991 1304.067017,334.731781 1303.770508,332.873932   C1303.523438,331.325684 1303.765381,329.057800 1304.752319,328.057861   C1311.401611,321.321289 1309.741943,308.129425 1300.780151,305.277344   C1293.290405,302.893768 1285.005005,303.010559 1276.522583,301.951508   C1276.522583,314.599213 1276.522583,325.899384 1276.522583,337.199524   C1276.522583,349.438110 1276.522705,349.440582 1288.859253,348.725189   C1289.155762,348.708008 1289.439453,348.470917 1290.126953,348.151703   C1290.126953,344.138580 1290.126953,339.931305 1290.126953,334.785400   C1292.564697,339.855072 1293.538574,345.536316 1296.826538,347.698792   C1300.173096,349.899811 1305.798340,348.636108 1311.594238,348.953522   C1309.390991,344.691986 1307.895020,341.798187 1306.060303,338.223999  M928.139648,338.084930   C934.288025,350.967041 948.897034,352.289886 957.072754,343.560944   C964.304932,335.839478 964.575623,314.520691 956.149292,306.704865   C948.660706,299.758911 936.347046,300.904022 930.630615,309.405273   C924.729980,318.180328 924.793701,327.629517 928.139648,338.084930  M1352.447144,347.990479   C1354.893799,348.341644 1357.330566,348.802368 1359.788818,349.024963   C1370.008789,349.950104 1377.511108,341.439026 1376.128418,331.219269   C1375.302124,325.112244 1370.789551,322.483856 1366.832397,319.066650   C1365.918457,318.277435 1365.701904,316.680664 1365.164429,315.455505   C1366.530273,315.463715 1368.099487,315.045288 1369.215332,315.577515   C1371.002686,316.429962 1372.489258,317.912506 1374.820801,319.669708   C1374.820801,316.324646 1374.776611,313.878326 1374.828735,311.434082   C1375.017700,302.575684 1374.934937,304.090668 1366.731934,302.211121   C1361.659302,301.048828 1354.585938,305.169800 1352.205566,309.808289   C1349.275269,315.518372 1349.875122,321.876312 1354.039795,326.372467   C1356.022949,328.513519 1358.514648,330.183563 1360.498413,332.324158   C1361.181030,333.060852 1361.021851,334.577942 1361.247192,335.738495   C1360.083252,335.897949 1358.706299,336.532104 1357.797241,336.123993   C1355.474731,335.081329 1353.360840,333.574188 1350.674805,331.959076   C1351.035278,337.459869 1351.366089,342.508240 1352.447144,347.990479  M903.267578,306.671051   C896.619324,312.224823 895.802246,319.646820 895.560059,327.765198   C895.140320,341.839325 907.951965,353.608124 922.819214,347.459595   C923.073608,345.137817 923.384888,342.857574 923.557617,340.566864   C923.740784,338.138000 923.792358,335.699188 923.848816,334.438263   C919.826965,334.438263 915.895508,335.305420 912.649048,334.186066   C909.610535,333.138458 909.146912,323.693420 910.871643,319.376251   C913.779785,312.097076 918.790588,315.574829 923.249451,317.446960   C923.249451,312.303528 923.249451,307.894745 923.249451,303.456940   C916.035095,301.065704 909.706543,302.096008 903.267578,306.671051  M1246.331543,311.315125   C1245.377930,317.902191 1251.433472,313.709320 1253.781250,316.307037   C1253.781250,326.623383 1253.781250,337.375458 1253.781250,348.433594   C1258.403076,348.433594 1262.594727,348.433594 1267.386475,348.433594   C1267.386475,337.243408 1267.386475,326.376892 1267.386475,315.421326   C1270.066528,315.244598 1272.158569,315.106659 1274.282227,314.966644   C1274.282227,310.829315 1274.282227,306.967926 1274.282227,303.199585   C1264.828979,303.199585 1255.759033,303.199585 1246.330566,303.199585   C1246.330566,305.794098 1246.330566,308.092377 1246.331543,311.315125  M1393.202881,348.779358   C1396.692749,349.291138 1397.835327,347.826569 1397.759399,344.308105   C1397.552490,334.723969 1397.688232,325.132446 1397.688232,315.460388   C1400.157349,315.256104 1402.043579,315.100037 1403.880371,314.948059   C1403.880371,310.790527 1403.880371,307.030365 1403.880371,303.147583   C1394.777832,303.147583 1385.897705,303.147583 1376.861938,303.147583   C1376.861938,307.197144 1376.861938,310.991638 1376.861938,314.961609   C1378.909180,315.129028 1380.825928,315.285797 1383.106934,315.472351   C1383.106934,323.655426 1383.106812,331.608978 1383.106934,339.562561   C1383.106934,348.779144 1383.107056,348.779144 1393.202881,348.779358  M1157.502808,302.894470   C1155.092896,302.894470 1152.683105,302.894470 1150.115234,302.894470   C1150.115234,314.618866 1150.115234,325.582642 1150.115234,336.546417   C1150.115234,349.259094 1150.115356,349.261902 1162.774780,348.683868   C1163.059448,348.670868 1163.331787,348.389191 1163.696045,348.184357   C1163.696045,333.185730 1163.696045,318.149994 1163.696045,302.894470   C1161.753052,302.894470 1160.108154,302.894470 1157.502808,302.894470  z"/>
    <path fill="#FFFFF" opacity="1.000000" stroke="none" d=" M440.608246,342.486389   C443.597961,371.301788 446.405579,399.696167 449.248932,428.451691   C446.422974,428.451691 444.129822,428.451691 441.572723,428.451691   C441.419128,430.102264 441.291656,431.472229 441.156677,432.922852   C411.831909,432.922852 382.855927,432.922852 352.756226,432.922852   C350.648651,388.271027 348.537445,343.542725 346.426208,298.814392   C346.256226,298.755920 346.086243,298.697479 345.916229,298.639008   C337.256195,341.745972 328.596130,384.852905 319.875916,428.259338   C317.847656,428.259338 315.900635,428.259338 313.605927,428.259338   C312.968079,432.447388 310.478333,433.206268 306.649658,433.166718   C285.492249,432.948242 264.331421,433.062134 242.699905,433.062134   C235.729340,392.327576 228.777817,351.704254 221.826294,311.080933   C221.388870,311.036041 220.951431,310.991119 220.513992,310.946228   C220.225677,312.815643 219.766876,314.676758 219.675339,316.555756   C218.740311,335.753235 217.972427,354.959412 216.940659,374.151489   C216.034485,391.007599 214.646576,407.839691 213.897430,424.701324   C213.621338,430.915192 209.172150,427.524902 206.299240,428.982849   C206.112030,429.945160 205.847733,431.303650 205.546829,432.850281   C175.707077,432.850281 145.936401,432.850281 115.549225,432.850281   C116.415314,424.951050 117.195503,417.159729 118.140022,409.388397   C119.373276,399.241486 120.781944,389.115967 122.031982,378.970978   C123.443550,367.515137 124.746696,356.045929 126.126411,344.586090   C127.782562,330.830200 129.415726,317.071167 131.157379,303.325958   C133.272141,286.636383 135.584290,269.971436 137.635345,253.274261   C139.547180,237.710434 141.138367,222.107285 143.037628,206.541824   C144.834473,191.815811 146.858124,177.117538 148.761719,162.404434   C149.502838,156.676178 150.770752,150.936874 150.732956,145.209641   C150.696289,139.652115 152.400604,137.362183 158.225143,138.901138   C158.563995,137.142868 158.833969,135.742020 159.136398,134.172729   C193.882965,134.172729 228.685165,134.172729 264.246704,134.172729   C270.902802,172.023422 277.574921,209.965179 284.247040,247.906921   C284.665253,247.951630 285.083435,247.996323 285.501617,248.041016   C292.758881,211.744370 300.016144,175.447739 307.318817,138.924042   C309.637329,138.766678 311.743103,138.623764 313.900085,138.477371   C314.327240,137.007996 314.732758,135.613007 315.198639,134.010330   C333.290131,134.010330 351.279358,134.010239 369.268585,134.010361   C384.601532,134.010468 399.936005,134.125931 415.266327,133.925507   C418.842865,133.878738 419.651245,135.290985 419.967072,138.454636   C421.803558,156.852341 423.924042,175.221756 425.747589,193.620667   C427.002716,206.285049 427.845795,218.989792 429.034576,231.661362   C430.006622,242.022629 431.215942,252.361664 432.322968,262.710236   C433.411652,272.887482 434.525116,283.062103 435.589447,293.241852   C437.015015,306.876495 438.413879,320.513977 439.799469,334.152740   C440.066803,336.784363 440.220184,339.427521 440.608246,342.486389  z"/>
    <path fill="#FFFFF" opacity="1.000000" stroke="none" d=" M468.179504,216.314148   C475.002319,204.401459 480.636993,192.019745 488.709198,181.510300   C505.496735,159.654160 527.824463,144.935257 553.825256,135.710495   C567.348755,130.912521 581.217529,129.222198 595.504028,128.704819   C611.878052,128.111877 627.551758,130.412827 642.889893,136.106354   C642.889893,164.422043 642.889893,192.552444 642.889893,221.746094   C640.004822,219.498886 637.687805,217.694107 634.756836,215.411102   C634.756836,219.205856 634.756836,222.396454 634.756836,226.819901   C632.176514,224.825104 630.400696,223.583328 628.771790,222.172058   C616.787598,211.789062 603.124390,206.917725 587.170227,209.159424   C576.620483,210.641754 569.134155,216.243134 563.678040,225.272339   C555.898865,238.146011 552.905701,252.190521 551.071167,266.961334   C549.385498,280.533600 550.543457,293.738800 552.940002,306.877075   C555.485596,320.832733 560.348022,333.985474 571.246521,343.978760   C582.478271,354.277679 595.926086,356.639130 610.446838,354.599945   C622.994751,352.837860 632.912903,345.679352 642.650757,338.254547   C643.481079,337.621490 644.508911,337.247467 646.368713,336.265259   C645.799316,345.728180 645.301758,354.258881 644.766846,362.787231   C644.466614,367.572662 644.025940,372.350281 643.785034,377.138275   C643.085449,391.044922 642.434265,404.954163 641.814392,418.864594   C641.690308,421.649261 640.585571,423.070679 637.759460,424.102753   C634.549866,425.274933 631.948853,428.057709 628.765015,429.365540   C609.635071,437.223724 589.704285,439.697998 569.143738,437.886993   C540.269531,435.343719 516.046265,423.029541 495.865051,402.661896   C479.248505,385.891937 468.745819,365.583069 462.695129,342.814392   C457.168640,322.018311 455.329437,300.829712 456.013702,279.459991   C456.702240,257.958710 460.076538,236.846024 468.179504,216.314148  z"/>
    <path fill="#FFFFF" opacity="1.000000" stroke="none" d=" M765.000000,433.061584   C747.716553,433.061584 730.933105,433.061584 713.820190,433.061584   C713.820190,359.008362 713.820190,285.416046 713.820190,211.368774   C698.588379,211.368774 683.676208,211.368774 668.350098,211.368774   C668.350098,187.046188 668.350098,163.174835 668.350098,138.896988   C670.592834,138.761993 672.844238,138.626465 675.404236,138.472366   C675.660339,137.039749 675.908203,135.653061 676.177551,134.146362   C735.206848,134.146362 794.175171,134.146362 853.491089,134.146362   C853.491089,157.904922 853.491089,181.633911 853.491089,205.703857   C851.323120,205.703857 849.064270,205.703857 846.400208,205.703857   C846.133362,207.498169 845.906677,209.022964 845.607117,211.037506   C832.625244,211.037506 819.556396,211.037506 806.140137,211.037506   C806.140137,283.617981 806.140137,355.711670 806.140137,428.325012   C803.724792,428.439606 801.634338,428.538788 799.217346,428.653473   C798.991455,429.960999 798.756653,431.320465 798.455933,433.061584   C787.422852,433.061584 776.461426,433.061584 765.000000,433.061584  z"/>
    <path fill="#FFFFF" opacity="1.000000" stroke="none" d=" M950.176270,211.923691   C957.455566,211.923630 964.258850,211.923630 971.681519,211.923630   C974.181091,236.753036 976.653259,261.310577 979.160583,286.216980   C971.145447,286.216980 963.720764,286.216980 955.849609,286.216980   C955.275391,275.044189 954.703918,263.924316 954.132446,252.804443   C953.955933,252.809738 953.779358,252.815018 953.602844,252.820312   C951.734009,262.468262 949.726379,272.092438 948.067871,281.776398   C947.445190,285.412842 945.922791,286.823578 942.206482,286.574188   C937.900757,286.285217 933.560791,286.506897 928.588501,286.506897   C926.876770,276.706390 925.166382,266.913422 923.455994,257.120453   C923.098816,257.103394 922.741638,257.086365 922.384460,257.069305   C921.703918,266.642487 921.023438,276.215668 920.317749,286.143433   C912.692444,286.143433 905.138123,286.143433 896.690613,286.143433   C899.692261,261.499664 902.689819,236.890213 905.707642,212.113617   C914.830505,212.113617 923.769043,212.113617 933.126404,212.113617   C934.812378,222.035034 936.481934,231.860031 938.342896,242.811264   C940.497131,231.998627 942.426880,222.312607 944.496643,211.923752   C946.163208,211.923752 947.931702,211.923752 950.176270,211.923691  z"/>
    <path fill="#FFFFF" opacity="1.000000" stroke="none" d=" M990.123840,286.508057   C987.500061,286.508057 985.356628,286.508057 982.301392,286.508057   C988.654846,261.350739 994.871643,236.734375 1001.102051,212.064178   C1010.073853,212.064178 1018.710449,212.064178 1027.892212,212.064178   C1033.367310,236.606796 1038.844482,261.158173 1044.422119,286.160522   C1036.666382,286.160522 1029.434814,286.160522 1021.523254,286.160522   C1020.875061,283.584839 1020.135010,280.644135 1019.332642,277.456085   C1015.621704,277.456085 1011.664429,277.456085 1007.682251,277.456085   C1007.498352,277.661591 1007.166382,277.861084 1007.109680,278.120636   C1005.278809,286.506866 1005.282837,286.507782 996.604187,286.508118   C994.604187,286.508209 992.604248,286.508087 990.123840,286.508057  M1012.391724,259.826111   C1013.812073,259.740997 1015.232483,259.655884 1016.735474,259.565826   C1015.944519,253.153931 1015.213562,247.228592 1014.482605,241.303253   C1014.054626,241.253067 1013.626648,241.202881 1013.198669,241.152710   C1012.628662,247.365753 1012.058716,253.578812 1012.391724,259.826111  z"/>
    <path fill="#FFFFF" opacity="1.000000" stroke="none" d=" M1143.761230,250.999863   C1143.761230,237.854950 1143.761230,225.210052 1143.761230,211.922058   C1150.482666,211.922058 1157.078979,211.922058 1163.675293,211.922058   C1170.151123,211.922058 1176.626953,211.922058 1183.386475,211.922058   C1183.386475,218.289276 1183.386475,224.358704 1183.386475,230.812088   C1177.659790,230.812088 1172.075439,230.812088 1166.225830,230.812088   C1166.225830,233.743210 1166.225830,236.298340 1166.225830,239.256577   C1171.256470,239.256577 1176.176880,239.256577 1181.390869,239.256577   C1181.390869,245.695129 1181.390869,251.737030 1181.390869,258.129944   C1176.281860,258.129944 1171.502930,258.129944 1166.339355,258.129944   C1166.339355,261.145996 1166.339355,263.824402 1166.339355,266.908203   C1171.977295,266.908203 1177.572144,266.908203 1183.415771,266.908203   C1183.415771,273.531189 1183.415771,279.762848 1183.415771,286.254700   C1170.261841,286.254700 1157.349365,286.254700 1143.761230,286.254700   C1143.761230,274.652863 1143.761230,263.076385 1143.761230,250.999863  z"/>
    <path fill="#FFFFF" opacity="1.000000" stroke="none" d=" M1063.953491,287.895935   C1062.676514,287.888702 1061.819702,288.009216 1061.016113,287.854218   C1047.424438,285.231415 1047.426025,285.223846 1047.426025,271.265350   C1047.426025,267.659149 1047.425903,264.052948 1047.425903,260.085052   C1051.351929,262.768402 1054.553101,265.174438 1057.967651,267.225128   C1061.033081,269.066101 1064.622437,268.752838 1066.000488,265.551025   C1066.646606,264.049622 1064.628296,260.551849 1062.883301,259.030243   C1057.671265,254.485306 1051.827148,250.773560 1048.967407,243.926834   C1043.143188,229.982452 1053.117798,210.939056 1070.193726,210.672714   C1072.502075,210.636703 1074.838501,210.814514 1077.123657,211.151855   C1086.311523,212.508194 1087.321289,213.710938 1087.321655,222.825195   C1087.321899,227.778488 1087.321655,232.731766 1087.321655,238.815567   C1085.651245,237.483032 1084.762573,236.743683 1083.842285,236.046112   C1081.636963,234.374283 1079.625854,232.025223 1077.137451,231.278839   C1075.083862,230.662827 1072.458618,231.952393 1070.086670,232.397537   C1070.990112,234.485504 1071.420166,237.038132 1072.907349,238.553146   C1075.167114,240.855347 1078.326416,242.242905 1080.811279,244.361649   C1088.851440,251.217041 1090.862915,259.916016 1088.211060,269.930267   C1085.721680,279.331818 1079.420410,284.737823 1070.228516,287.052765   C1068.334473,287.529755 1066.344360,287.624542 1063.953491,287.895935  z"/>
    <path fill="#FFFFF" opacity="1.000000" stroke="none" d=" M1100.075073,219.163757   C1108.479370,208.647781 1123.197021,209.126740 1131.923340,213.885086   C1132.763672,214.343323 1133.809326,215.425476 1133.826050,216.237228   C1133.974487,223.446564 1133.912476,230.660248 1133.912476,238.358047   C1120.543213,228.449951 1120.543213,228.449951 1115.595459,234.493561   C1118.565063,236.975998 1121.374756,239.710770 1124.555298,241.908798   C1132.987793,247.736389 1137.209473,255.168350 1136.004517,265.811890   C1134.305786,280.815491 1121.046631,289.832062 1107.195679,287.477142   C1094.587036,285.333466 1094.637817,285.034698 1094.637817,272.191925   C1094.637817,268.245209 1094.637817,264.298492 1094.637817,260.313629   C1098.431274,262.857300 1101.673218,265.260956 1105.137939,267.282593   C1107.990356,268.947021 1111.594360,268.846100 1112.877319,265.862854   C1113.575562,264.239044 1111.630615,260.909454 1110.063110,259.028259   C1108.210449,256.804932 1105.522339,255.253464 1103.119873,253.516708   C1091.910767,245.413589 1092.343872,228.028824 1100.075073,219.163757  z"/>
    <path fill="#FFFFF" opacity="1.000000" stroke="none" d=" M1231.081787,211.923264   C1236.214478,211.923264 1240.861328,211.923264 1246.154663,211.923264   C1241.786255,222.324951 1237.853882,232.361313 1233.372559,242.146210   C1229.761597,250.030563 1227.195312,257.888153 1227.957153,266.771454   C1228.505859,273.169342 1228.063965,279.652191 1228.063965,286.300781   C1220.352295,286.300781 1213.085327,286.300781 1205.111084,286.300781   C1205.111084,278.318787 1204.916260,270.413483 1205.179565,262.523499   C1205.355225,257.257690 1204.424072,252.445694 1202.151855,247.673798   C1197.184204,237.241150 1192.504395,226.671036 1187.757690,216.134186   C1187.240845,214.986465 1187.056519,213.688950 1186.570557,211.926270   C1193.906860,211.926270 1200.718872,211.617157 1207.461792,212.162552   C1208.982056,212.285507 1210.750122,215.188263 1211.550781,217.158218   C1213.256836,221.356140 1214.403320,225.781494 1216.160034,231.313461   C1217.838379,226.295532 1219.581909,222.694305 1220.187500,218.910919   C1221.214233,212.497375 1224.848755,210.855804 1231.081787,211.923264  z"/>
    <path fill="#FFFFF" opacity="1.000000" stroke="none" d=" M1019.967773,337.772217   C1021.319641,326.028168 1022.665100,314.736511 1024.042725,303.174866   C1029.650513,303.174866 1035.256958,303.174866 1041.216797,303.174866   C1041.936768,307.766754 1042.678101,312.495575 1043.419556,317.224396   C1043.733887,317.230133 1044.048096,317.235901 1044.362427,317.241638   C1045.296021,312.699341 1046.229614,308.157013 1047.236938,303.255981   C1052.725708,303.255981 1058.304321,303.255981 1064.174561,303.255981   C1065.699951,318.004150 1067.237915,332.874603 1068.828857,348.257629   C1064.125977,348.257629 1059.456177,348.257629 1054.384644,348.257629   C1053.941772,342.993103 1053.492676,337.654388 1052.926270,330.920929   C1051.564697,336.788910 1050.454712,341.251923 1049.505859,345.748993   C1048.460693,350.701843 1044.500732,348.641937 1041.885010,348.549866   C1040.216675,348.491180 1038.021484,346.630646 1037.141479,344.996826   C1035.915283,342.720123 1035.698120,339.899963 1034.071289,337.402740   C1033.990723,338.418304 1033.850586,339.433197 1033.838867,340.449585   C1033.742676,348.772461 1033.750000,348.772461 1025.198975,348.770020   C1023.233643,348.769440 1021.268311,348.769897 1018.696594,348.769897   C1019.152161,344.971863 1019.556763,341.598236 1019.967773,337.772217  z"/>
    <path fill="#FFFFF" opacity="1.000000" stroke="none" d=" M983.221191,341.811249   C982.692688,339.984894 982.165771,338.571533 981.638916,337.158203   C981.365601,337.219208 981.092285,337.280243 980.818970,337.341248   C980.818970,339.643555 980.607849,341.969910 980.867065,344.242645   C981.285706,347.914368 979.544128,348.938477 976.247253,348.797760   C972.952209,348.657074 969.646423,348.766876 965.558960,348.766876   C967.387085,333.259705 969.165344,318.175690 970.950989,303.029480   C976.780029,303.029480 982.076111,303.029480 987.812744,303.029480   C988.721924,307.799469 989.624084,312.532532 990.526245,317.265594   C990.784424,317.290588 991.042603,317.315613 991.300720,317.340637   C992.261230,312.670105 993.221680,307.999603 994.222473,303.132843   C999.643738,303.132843 1004.929871,303.132843 1011.037781,303.132843   C1012.592285,318.155701 1014.156128,333.268585 1015.680542,348.001160   C1014.659485,348.547577 1014.527832,348.676361 1014.389832,348.683594   C1000.739136,349.400085 1000.734314,349.399689 1000.250732,335.922668   C1000.198425,334.465576 1000.243591,333.005035 999.532715,331.468842   C998.670288,335.757904 997.787842,340.043091 996.952942,344.337524   C996.452515,346.911102 995.800354,349.220978 992.361816,348.781677   C989.182007,348.375458 985.016113,350.297302 983.955994,345.077606   C983.760742,344.116486 983.469604,343.174866 983.221191,341.811249  z"/>
    <path fill="#FFFFF" opacity="1.000000" stroke="none" d=" M1166.616943,309.902893   C1166.616821,307.465271 1166.616821,305.482483 1166.616821,303.204102   C1180.307007,303.204102 1193.710083,303.204102 1207.540405,303.204102   C1208.470825,305.813416 1209.493164,308.680206 1210.796021,312.333710   C1212.270996,309.101471 1213.564453,306.267120 1215.004883,303.110657   C1219.390259,303.110657 1224.168213,303.110657 1229.419922,303.110657   C1224.220581,317.930054 1214.416138,331.354065 1219.072754,348.766113   C1214.150391,348.766113 1210.535156,348.921692 1206.951904,348.652283   C1206.099243,348.588196 1205.322632,347.128662 1204.582275,346.250824   C1204.416626,346.054199 1204.502197,345.597229 1204.553101,345.272858   C1206.708740,331.519928 1200.602173,319.961945 1194.298462,307.547638   C1194.135742,310.412903 1194.014404,312.549805 1193.870728,315.079041   C1191.718140,315.079041 1189.640747,315.079041 1187.079956,315.079041   C1187.079956,326.362671 1187.079956,337.263672 1187.079956,348.764435   C1183.009033,348.764435 1179.357422,349.085297 1175.826416,348.573120   C1174.737061,348.415070 1173.222412,346.004181 1173.188354,344.593811   C1172.955933,334.971069 1173.066528,325.340027 1173.066528,315.441620   C1170.797241,315.269104 1168.877563,315.123199 1166.617065,314.951355   C1166.617065,313.316895 1166.617065,311.837311 1166.616943,309.902893  z"/>
    <path fill="#FFFFF" opacity="1.000000" stroke="none" d=" M1144.979492,346.562195   C1140.020874,350.950256 1132.031860,349.170685 1129.940552,343.718262   C1128.567871,340.139374 1127.094971,336.598907 1124.801392,333.256287   C1124.801392,337.187286 1124.674194,341.123749 1124.843994,345.047424   C1124.966675,347.884918 1123.871094,349.087555 1121.072144,348.771484   C1120.907715,348.752899 1120.739380,348.765503 1120.572998,348.770020   C1110.953979,349.031433 1110.953979,349.031494 1110.953979,339.369537   C1110.953979,327.407104 1110.953979,315.444672 1110.953979,302.903931   C1114.939819,302.903931 1118.711914,302.766388 1122.460327,303.002197   C1123.379150,303.059937 1124.596802,304.160919 1125.033569,305.086060   C1126.962280,309.171051 1128.656128,313.366974 1130.958496,318.745850   C1130.958496,312.862152 1130.958496,308.194153 1130.958496,303.219421   C1135.795044,303.219421 1140.170898,303.219421 1144.990479,303.219421   C1144.990479,317.557159 1144.990479,331.827850 1144.979492,346.562195  z"/>
    <path fill="#FFFFF" opacity="1.000000" stroke="none" d=" M1315.185059,341.531433   C1314.395752,336.979126 1313.320190,332.809845 1313.171997,328.607880   C1312.874512,320.178375 1313.083496,311.730988 1313.083496,303.093109   C1317.995728,303.093109 1322.440063,303.093109 1327.667114,303.093109   C1327.667114,312.147522 1327.599487,321.209320 1327.719116,330.268646   C1327.745972,332.295197 1328.429321,334.313080 1329.943115,336.228363   C1333.320068,325.388794 1331.240845,314.356262 1332.345093,303.218262   C1336.879150,303.218262 1341.448120,303.218262 1346.429932,303.218262   C1346.429932,314.406128 1346.827026,325.682159 1346.277954,336.911896   C1345.959351,343.426727 1341.080078,347.491333 1335.034058,348.587036   C1327.557739,349.941925 1320.069214,349.459229 1315.185059,341.531433  z"/>
    <path fill="#FFFFF" opacity="1.000000" stroke="none" d=" M1091.245728,304.335815   C1095.927734,303.413605 1100.578613,302.964630 1105.793701,302.461182   C1105.793701,314.839020 1106.206665,326.452759 1105.633667,338.017639   C1105.307007,344.609894 1096.462524,349.834717 1088.599243,349.208160   C1077.807129,348.348175 1072.369263,341.703400 1072.876465,332.155182   C1073.379028,322.697144 1073.023682,313.193604 1073.060059,303.710083   C1073.060547,303.585052 1073.264526,303.460846 1073.565552,303.116638   C1077.797241,303.116638 1082.227417,303.116638 1087.326172,303.116638   C1087.326172,311.842255 1087.325928,320.577972 1087.326660,329.313690   C1087.326782,330.644806 1087.073608,332.046722 1087.413818,333.285187   C1087.699585,334.326019 1088.678711,335.176361 1089.350952,336.111023   C1089.968018,335.161163 1091.107422,334.218933 1091.121338,333.260315   C1091.259033,323.778107 1091.210449,314.293152 1091.245728,304.335815  z"/>
    <path fill="#FFFFF" opacity="1.000000" stroke="none" d=" M1306.229614,338.564209   C1307.895020,341.798187 1309.390991,344.691986 1311.594238,348.953522   C1305.798340,348.636108 1300.173096,349.899811 1296.826538,347.698792   C1293.538574,345.536316 1292.564697,339.855072 1290.126953,334.785400   C1290.126953,339.931305 1290.126953,344.138580 1290.126953,348.151703   C1289.439453,348.470917 1289.155762,348.708008 1288.859253,348.725189   C1276.522705,349.440582 1276.522583,349.438110 1276.522583,337.199524   C1276.522583,325.899384 1276.522583,314.599213 1276.522583,301.951508   C1285.005005,303.010559 1293.290405,302.893768 1300.780151,305.277344   C1309.741943,308.129425 1311.401611,321.321289 1304.752319,328.057861   C1303.765381,329.057800 1303.523438,331.325684 1303.770508,332.873932   C1304.067017,334.731781 1305.257202,336.446991 1306.229614,338.564209  M1291.240723,314.740570   C1290.736938,317.397705 1290.233276,320.054810 1289.729614,322.711945   C1290.305542,323.004822 1290.881348,323.297699 1291.457153,323.590607   C1292.510010,322.326813 1294.410034,321.061340 1294.407471,319.799683   C1294.404053,318.106842 1292.929688,316.416962 1291.240723,314.740570  z"/>
    <path fill="#FFFFF" opacity="1.000000" stroke="none" d=" M928.048279,337.705139   C924.793701,327.629517 924.729980,318.180328 930.630615,309.405273   C936.347046,300.904022 948.660706,299.758911 956.149292,306.704865   C964.575623,314.520691 964.304932,335.839478 957.072754,343.560944   C948.897034,352.289886 934.288025,350.967041 928.048279,337.705139  M948.010376,326.430145   C947.929382,322.249054 948.731689,317.807953 944.655212,314.592896   C940.014771,318.042297 940.572205,322.964050 941.011780,327.431030   C941.303894,330.399139 943.116333,333.217590 944.248230,336.103027   C948.264526,334.368866 948.003662,330.798065 948.010376,326.430145  z"/>
    <path fill="#FFFFF" opacity="1.000000" stroke="none" d=" M1352.072021,347.773560   C1351.366089,342.508240 1351.035278,337.459869 1350.674805,331.959076   C1353.360840,333.574188 1355.474731,335.081329 1357.797241,336.123993   C1358.706299,336.532104 1360.083252,335.897949 1361.247192,335.738495   C1361.021851,334.577942 1361.181030,333.060852 1360.498413,332.324158   C1358.514648,330.183563 1356.022949,328.513519 1354.039795,326.372467   C1349.875122,321.876312 1349.275269,315.518372 1352.205566,309.808289   C1354.585938,305.169800 1361.659302,301.048828 1366.731934,302.211121   C1374.934937,304.090668 1375.017700,302.575684 1374.828735,311.434082   C1374.776611,313.878326 1374.820801,316.324646 1374.820801,319.669708   C1372.489258,317.912506 1371.002686,316.429962 1369.215332,315.577515   C1368.099487,315.045288 1366.530273,315.463715 1365.164429,315.455505   C1365.701904,316.680664 1365.918457,318.277435 1366.832397,319.066650   C1370.789551,322.483856 1375.302124,325.112244 1376.128418,331.219269   C1377.511108,341.439026 1370.008789,349.950104 1359.788818,349.024963   C1357.330566,348.802368 1354.893799,348.341644 1352.072021,347.773560  z"/>
    <path fill="#FFFFF" opacity="1.000000" stroke="none" d=" M903.537476,306.422607   C909.706543,302.096008 916.035095,301.065704 923.249451,303.456940   C923.249451,307.894745 923.249451,312.303528 923.249451,317.446960   C918.790588,315.574829 913.779785,312.097076 910.871643,319.376251   C909.146912,323.693420 909.610535,333.138458 912.649048,334.186066   C915.895508,335.305420 919.826965,334.438263 923.848816,334.438263   C923.792358,335.699188 923.740784,338.138000 923.557617,340.566864   C923.384888,342.857574 923.073608,345.137817 922.819214,347.459595   C907.951965,353.608124 895.140320,341.839325 895.560059,327.765198   C895.802246,319.646820 896.619324,312.224823 903.537476,306.422607  z"/>
    <path fill="#FFFFF" opacity="1.000000" stroke="none" d=" M1246.331055,310.852875   C1246.330566,308.092377 1246.330566,305.794098 1246.330566,303.199585   C1255.759033,303.199585 1264.828979,303.199585 1274.282227,303.199585   C1274.282227,306.967926 1274.282227,310.829315 1274.282227,314.966644   C1272.158569,315.106659 1270.066528,315.244598 1267.386475,315.421326   C1267.386475,326.376892 1267.386475,337.243408 1267.386475,348.433594   C1262.594727,348.433594 1258.403076,348.433594 1253.781250,348.433594   C1253.781250,337.375458 1253.781250,326.623383 1253.781250,316.307037   C1251.433472,313.709320 1245.377930,317.902191 1246.331055,310.852875  z"/>
    <path fill="#FFFFF" opacity="1.000000" stroke="none" d=" M1392.749268,348.779205   C1383.107056,348.779144 1383.106934,348.779144 1383.106934,339.562561   C1383.106812,331.608978 1383.106934,323.655426 1383.106934,315.472351   C1380.825928,315.285797 1378.909180,315.129028 1376.861938,314.961609   C1376.861938,310.991638 1376.861938,307.197144 1376.861938,303.147583   C1385.897705,303.147583 1394.777832,303.147583 1403.880371,303.147583   C1403.880371,307.030365 1403.880371,310.790527 1403.880371,314.948059   C1402.043579,315.100037 1400.157349,315.256104 1397.688232,315.460388   C1397.688232,325.132446 1397.552490,334.723969 1397.759399,344.308105   C1397.835327,347.826569 1396.692749,349.291138 1392.749268,348.779205  z"/>
    <path fill="#FFFFF" opacity="1.000000" stroke="none" d=" M1157.982910,302.894470   C1160.108154,302.894470 1161.753052,302.894470 1163.696045,302.894470   C1163.696045,318.149994 1163.696045,333.185730 1163.696045,348.184357   C1163.331787,348.389191 1163.059448,348.670868 1162.774780,348.683868   C1150.115356,349.261902 1150.115234,349.259094 1150.115234,336.546417   C1150.115234,325.582642 1150.115234,314.618866 1150.115234,302.894470   C1152.683105,302.894470 1155.092896,302.894470 1157.982910,302.894470  z"/>
    <path fill="#1C1C1C" opacity="0" stroke="none" d=" M1011.940247,259.808990   C1012.058716,253.578812 1012.628662,247.365753 1013.198669,241.152710   C1013.626648,241.202881 1014.054626,241.253067 1014.482605,241.303253   C1015.213562,247.228592 1015.944519,253.153931 1016.735474,259.565826   C1015.232483,259.655884 1013.812073,259.740997 1011.940247,259.808990  z"/>
    <path fill="#1C1C1C" opacity="0" stroke="none" d=" M1291.663818,314.733215   C1292.929688,316.416962 1294.404053,318.106842 1294.407471,319.799683   C1294.410034,321.061340 1292.510010,322.326813 1291.457153,323.590607   C1290.881348,323.297699 1290.305542,323.004822 1289.729614,322.711945   C1290.233276,320.054810 1290.736938,317.397705 1291.663818,314.733215  z"/>
    <path fill="#0D0D0D" opacity="0" stroke="none" d=" M948.010376,326.886108   C948.003662,330.798065 948.264526,334.368866 944.248230,336.103027   C943.116333,333.217590 941.303894,330.399139 941.011780,327.431030   C940.572205,322.964050 940.014771,318.042297 944.655212,314.592896   C948.731689,317.807953 947.929382,322.249054 948.010376,326.886108  z"/>
    </svg>