<?xml version="1.0" encoding="UTF-8" standalone="no"?>
<svg width="282px" height="50px" viewBox="0 0 282 50" version="1.1" xmlns="http://www.w3.org/2000/svg" xmlns:xlink="http://www.w3.org/1999/xlink">
    <!-- Generator: sketchtool 39.1 (31720) - http://www.bohemiancoding.com/sketch -->
    <title>0D3896B6-CD96-4F06-8BE8-A7B3B2894AAD</title>
    <desc>Created with sketchtool.</desc>
    <defs></defs>
    <g id="Home" stroke="none" stroke-width="1" fill="none" fill-rule="evenodd">
        <g id="HO01-01" transform="translate(-167.000000, -54.000000)">
            <g id="Group-8" transform="translate(167.000000, 54.000000)">
                <g id="ic_newshub_large">
                    <path d="M281.616162,43.4527177 C281.616162,46.793884 278.907205,49.5028409 275.566038,49.5028409 C272.224424,49.5028409 269.515467,46.793884 269.515467,43.4527177 C269.515467,40.1111034 272.224424,37.4021465 275.566038,37.4021465 C278.907205,37.4021465 281.616162,40.1111034 281.616162,43.4527177" id="Fill-1" fill="#ED1C24"></path>
                    <polyline id="Fill-2" fill="#A7A9AC" points="0 48.4027778 0 0 10.529228 0 30.644182 32.4722907 30.7795481 32.4722907 30.7795481 0 40.7023359 0 40.7023359 48.4027778 30.1045224 48.4027778 10.0572514 15.9989146 9.92233652 15.9989146 9.92233652 48.4027778 0 48.4027778"></polyline>
                    <path d="M78.0489102,32.5497252 L53.3894655,32.5497252 C53.6541789,38.3670528 56.4524513,41.2750487 61.7856087,41.2750487 C64.4300911,41.2750487 66.5676849,40.3653817 68.1983901,38.5442665 C68.6827404,37.9676542 69.0133007,37.3901514 69.189629,36.8126486 L77.4536365,36.8126486 C74.9412898,44.5388077 69.6085744,48.4027778 61.4554903,48.4027778 C55.196499,48.4027778 50.4586154,46.1372927 47.2413975,41.6081035 C45.0821493,38.5006309 44.0025253,34.725713 44.0025253,30.2851306 C44.0025253,24.5559646 45.8966181,19.9390592 49.6874553,16.4299617 C52.9051151,13.544674 56.8276461,12.1006944 61.4554903,12.1006944 C67.5805782,12.1006944 72.1421335,14.5879192 75.1397144,19.5605878 C77.3873477,23.2028182 78.3564903,27.5325306 78.0489102,32.5497252 L78.0489102,32.5497252 Z M53.3894655,26.5542935 L68.6610861,26.5542935 C67.9111385,22.5140003 66.1491814,20.1599083 63.3725633,19.4946892 L61.1912188,19.227533 C57.4892086,19.227533 55.0643632,20.8496167 53.9188923,24.0897769 C53.6099863,24.8890194 53.4332161,25.7118607 53.3894655,26.5542935 L53.3894655,26.5542935 Z" id="Fill-3" fill="#A7A9AC"></path>
                    <polyline id="Fill-4" fill="#A7A9AC" points="128.707386 13.2007576 117.752353 48.4027778 107.939415 48.4027778 101.75584 24.7763689 101.621053 24.7763689 95.7066019 48.4027778 85.8267194 48.4027778 74.8042929 13.2007576 84.8859066 13.2007576 91.2707638 37.1002621 91.4055507 37.1002621 97.1852146 13.2007576 106.460802 13.2007576 112.375253 37.0319882 112.509591 37.0319882 118.894897 13.2007576 128.707386 13.2007576"></polyline>
                    <path d="M126.50726,36.2796719 L135.498363,36.2796719 C135.542439,39.2103761 137.097127,41.053309 140.160647,41.8080255 C140.959807,41.9861296 141.826194,42.0742912 142.758027,42.0742912 C145.688428,42.0742912 147.597062,41.2314132 148.485709,39.5434309 C148.796024,38.9668186 148.951849,38.3443445 148.951849,37.6782349 C148.951849,36.1692473 147.620213,34.9701609 144.95605,34.0809759 C143.6676,33.6374965 141.426391,33.0608842 138.229307,32.3498033 C133.078178,31.2402143 129.792942,29.5304142 128.372263,27.2204031 C127.661701,26.066288 127.306865,24.712251 127.306865,23.1574016 C127.306865,16.808433 131.102762,13.1898015 138.695447,12.3006164 C139.804476,12.1670382 141.003883,12.1006944 142.291888,12.1006944 C150.860482,12.1006944 155.833971,15.1427137 157.210574,21.2258618 C157.343693,21.8033646 157.432291,22.4253934 157.476812,23.0906125 L148.485709,23.0906125 C148.263102,19.9831399 146.110491,18.4282905 142.02565,18.4282905 C138.517806,18.4282905 136.764107,19.4946892 136.764107,21.6252604 C136.764107,23.2246359 138.184786,24.4464305 141.026144,25.2888633 L147.486648,26.7542154 C152.458802,27.9101115 155.679037,29.5963127 157.144237,31.8168265 C157.987028,33.1054102 158.409091,34.6371061 158.409091,36.4128048 C158.409091,42.1410803 155.434169,45.8492092 149.485215,47.536301 C147.442127,48.1129132 145.177767,48.4027778 142.69169,48.4027778 C135.631927,48.4027778 130.836524,46.3821859 128.305481,42.3410022 C127.195116,40.6539104 126.596303,38.6337638 126.50726,36.2796719" id="Fill-5" fill="#A7A9AC"></path>
                    <path d="M162.809343,48.4027778 L162.809343,0 L172.471607,0 L172.471607,18.2361796 L172.675842,18.2361796 C174.625398,15.1175129 177.393258,13.2427781 180.977602,12.6097096 C181.657626,12.4737608 182.314908,12.4062395 182.950356,12.4062395 C189.391258,12.4062395 193.384072,14.8465215 194.926978,19.7279918 L195.538773,22.6422821 C195.719354,23.9079659 195.811237,25.3100518 195.811237,26.8458207 L195.811237,48.4027778 L186.148973,48.4027778 L186.148973,28.6077179 C186.148973,23.7724702 184.742073,20.9714706 181.930091,20.2020001 L179.956428,19.99853 C176.236078,19.99853 173.92263,21.6933591 173.016082,25.0825641 C172.652644,26.3940174 172.471607,28.0439833 172.471607,30.0320088 L172.471607,48.4027778 L162.809343,48.4027778" id="Fill-6" fill="#414042"></path>
                    <path d="M231.013258,13.2007576 L231.013258,47.4739365 L221.82691,47.4739365 L221.82691,42.7012169 L221.623133,42.7012169 C219.535782,45.9282312 216.495954,47.8054123 212.505015,48.3358622 C211.960547,48.3792909 211.41608,48.4027778 210.872068,48.4027778 C204.429889,48.4027778 200.43804,46.0155317 198.896066,41.242812 C198.306113,39.4303307 198.011364,37.1108865 198.011364,34.2813772 L198.011364,13.2007576 L207.673949,13.2007576 L207.673949,32.5584121 C207.673949,37.2881463 209.079466,40.0276962 211.892318,40.7779482 C212.481362,40.9113362 213.139544,40.9773655 213.865955,40.9773655 C217.584888,40.9773655 219.898305,39.3195434 220.80666,36.0056717 C221.169183,34.7236404 221.350672,33.1114626 221.350672,31.1664797 L221.350672,13.2007576 L231.013258,13.2007576" id="Fill-7" fill="#414042"></path>
                    <path d="M234.313447,47.4712286 L234.313447,0 L243.907428,0 L243.907428,17.2865476 L244.042478,17.2865476 C246.11385,14.1847912 249.425063,12.4999139 253.974762,12.2336935 C254.335197,12.1901383 254.69518,12.1674718 255.056067,12.1674718 C259.245332,12.1674718 262.713727,13.8074605 265.461704,17.0878823 C268.164062,20.3683042 269.515467,24.7558295 269.515467,30.2517917 C269.515467,37.4766308 267.28601,42.7072614 262.826645,45.9423503 C260.483367,47.5814501 257.893927,48.4027778 255.056067,48.4027778 C249.380347,48.4027778 245.551517,46.6299011 243.569577,43.0832589 L243.434527,43.0832589 L243.434527,47.4712286 L234.313447,47.4712286 L234.313447,47.4712286 Z M259.921034,30.3184579 C259.921034,25.6638233 258.613893,22.4287344 256.00187,20.6109692 C254.785967,19.7247531 253.367263,19.2812006 251.745306,19.2812006 C248.140957,19.2812006 245.686115,21.2091873 244.38033,25.0660496 C243.840129,26.6615942 243.569577,28.4131377 243.569577,30.3184579 C243.569577,34.8393156 244.830196,38.0304048 247.35324,39.8921697 C248.613858,40.82283 250.078181,41.2881601 251.745306,41.2881601 C255.348299,41.2881601 257.803141,39.3601734 259.110282,35.5041999 C259.650934,33.9530995 259.921034,32.224667 259.921034,30.3184579 L259.921034,30.3184579 Z" id="Fill-8" fill="#414042"></path>
                </g>
            </g>
        </g>
    </g>
</svg>