<svg width="511" height="428" viewBox="0 0 511 428" fill="none" xmlns="http://www.w3.org/2000/svg">
<path d="M486.703 105.314C478.403 91.4592 467.493 79.9467 455.445 69.3712C436.972 53.1733 417.896 37.5779 400.493 20.2421C388.914 8.72959 382.22 8.26106 371.176 21.4469C340.855 57.524 309.33 92.664 277.47 127.402C268.233 137.442 268.367 142.931 279.009 151.766C303.507 172.181 327.402 193.332 350.293 215.487C367.294 231.952 369.034 249.957 357.99 263.411C345.675 278.404 328.874 279.408 308.326 264.75C295.943 255.914 284.297 245.874 273.387 235.299C266.626 228.739 261.874 229.543 258.193 236.705C251.366 250.091 224.191 259.06 235.971 273.853C255.315 298.283 281.151 318.698 312.676 328.738C338.513 336.971 362.408 334.226 384.228 317.627C414.616 294.535 423.786 265.084 408.659 228.07C423.652 230.279 436.168 231.484 449.957 227.401C501.964 201.297 515.685 153.707 486.703 105.314ZM421.51 179.209C387.307 182.89 371.912 155.782 350.36 139.517C345.808 136.037 349.824 132.556 352.368 129.611C356.719 124.591 360.668 119.17 365.688 114.886C375.795 106.118 380.279 88.3803 394.871 88.3133C408.793 88.2464 443.464 133.493 443.531 147.683C443.598 162.275 436.838 173.051 421.51 179.209Z" fill="#FB5DBD"/>
<path d="M91.1942 157.589C115.424 138.045 129.346 111.271 153.108 88.2464C154.513 114.819 156.12 138.313 156.856 161.806C157.124 170.842 159.533 173.118 168.569 170.842C187.846 165.956 207.926 163.747 226.734 157.589C247.417 150.829 263.949 153.64 278.474 169.838C282.824 174.657 288.313 178.406 296.68 185.501C269.973 190.922 246.546 195.741 223.053 200.36C207.457 203.439 191.862 206.919 176.066 208.927C164.285 210.4 161.206 215.353 161.407 227.066C162.21 267.36 161.742 307.654 161.742 350.29C136.776 335.23 117.097 321.777 120.846 288.645C124.259 258.726 121.582 228.137 121.582 191.859C101.435 216.758 83.6977 236.169 69.0393 257.588C56.9244 275.258 49.8964 261.738 41.195 255.847C32.0921 249.623 23.9262 244.469 35.5726 231.484C52.8414 212.274 67.8345 191.056 82.6268 168.767C81.4889 166.826 82.2252 165.287 83.363 163.948C84.434 162.609 85.6388 161.405 86.9105 160.2C88.1822 159.062 89.5878 158.058 91.1942 157.589Z" fill="#FB5DBD"/>
<path d="M82.4928 168.7C77.1381 165.956 72.6536 170.24 67.6336 170.775C46.0141 173.118 29.08 159.798 27.8082 139.049C26.6034 119.036 43.8722 102.302 64.3538 103.574C84.9693 104.846 98.6907 122.315 95.5448 143.533C94.9424 147.349 93.1352 151.03 93.0682 155.983C94.273 157.188 94.4069 156.92 94.4738 156.786C93.4698 157.589 92.4658 158.526 90.7925 160.334C90.0562 161.07 90.324 160.802 90.4578 160.735C89.5877 161.605 88.5837 162.609 86.8434 164.35C86.1072 165.086 86.308 164.885 86.4418 164.751C85.6386 165.621 84.6346 166.625 82.8944 168.299C82.0912 168.968 82.3589 168.767 82.4928 168.7Z" fill="#FB5DBD"/>
<path d="M477.703 65.3144C469.403 51.4592 458.493 39.9467 446.445 29.3712C427.972 13.1733 408.896 -2.42214 391.493 -19.7579C379.914 -31.2704 373.22 -31.7389 362.176 -18.5531C331.855 17.524 300.33 52.664 268.47 87.4024C259.233 97.4424 259.367 102.931 270.009 111.766C294.507 132.181 318.402 153.332 341.293 175.487C358.294 191.952 360.034 209.957 348.99 223.411C336.675 238.404 319.874 239.408 299.326 224.75C286.943 215.914 275.297 205.874 264.387 195.299C257.626 188.739 252.874 189.543 249.193 196.705C242.366 210.091 215.191 219.06 226.971 233.853C246.315 258.283 272.151 278.698 303.676 288.738C329.513 296.971 353.408 294.226 375.228 277.627C405.616 254.535 414.786 225.084 399.659 188.07C414.652 190.279 427.168 191.484 440.957 187.401C492.964 161.297 506.685 113.707 477.703 65.3144ZM412.51 139.209C378.307 142.89 362.912 115.782 341.36 99.5173C336.808 96.0368 340.824 92.5563 343.368 89.6112C347.719 84.5912 351.668 79.1696 356.688 74.8859C366.795 66.1176 371.279 48.3803 385.871 48.3133C399.793 48.2464 434.464 93.4933 434.531 107.683C434.598 122.275 427.838 133.051 412.51 139.209Z" fill="black"/>
<path d="M82.1942 117.589C106.424 98.0448 120.346 71.2715 144.108 48.2464C145.513 74.8189 147.12 98.3125 147.856 121.806C148.124 130.842 150.533 133.118 159.569 130.842C178.846 125.956 198.926 123.747 217.734 117.589C238.417 110.829 254.949 113.64 269.474 129.838C273.824 134.657 279.313 138.406 287.68 145.501C260.973 150.922 237.546 155.741 214.053 160.36C198.457 163.439 182.862 166.919 167.066 168.927C155.285 170.4 152.206 175.353 152.407 187.066C153.21 227.36 152.742 267.654 152.742 310.29C127.776 295.23 108.097 281.777 111.846 248.645C115.259 218.726 112.582 188.137 112.582 151.859C92.435 176.758 74.6977 196.169 60.0393 217.588C47.9244 235.258 40.8964 221.738 32.195 215.847C23.0921 209.623 14.9262 204.469 26.5726 191.484C43.8414 172.274 58.8345 151.056 73.6268 128.767C72.4889 126.826 73.2252 125.287 74.363 123.948C75.434 122.609 76.6388 121.405 77.9105 120.2C79.1822 119.062 80.5878 118.058 82.1942 117.589Z" fill="black"/>
<path d="M73.4928 128.7C68.1381 125.956 63.6536 130.24 58.6336 130.775C37.0141 133.118 20.08 119.798 18.8082 99.0488C17.6034 79.0357 34.8722 62.3024 55.3538 63.5741C75.9693 64.8459 89.6907 82.3155 86.5448 103.533C85.9424 107.349 84.1352 111.03 84.0682 115.983C85.273 117.188 85.4069 116.92 85.4738 116.786C84.4698 117.589 83.4658 118.526 81.7925 120.334C81.0562 121.07 81.324 120.802 81.4578 120.735C80.5877 121.605 79.5837 122.609 77.8434 124.35C77.1072 125.086 77.308 124.885 77.4418 124.751C76.6386 125.621 75.6346 126.625 73.8944 128.299C73.0912 128.968 73.3589 128.767 73.4928 128.7Z" fill="black"/>
</svg>
